<svg xmlns="http://www.w3.org/2000/svg" version="1.1" width="600px" height="600px" viewBox="0 0 200 200" style="overflow:hidden!important;"><g id="svga-group-wrapper"><g id="svga-group-backs-single"></g><g id="svga-group-humanwrap-move" transform="matrix(1,0,0,1,0,0)"><g id="svga-group-humanwrap"><g id="svga-group-hair-back-move" transform="matrix(1,0,0,1,0,0)"><g id="svga-group-hair-back"></g></g><g id="svga-group-humanbody-back"><path id="SvgjsPath12016" d="M77.8 105.9s4.8 37.7 10 55.8c0 0-6.4 8.8-14.5 11.9-28.7 11.2-35 11.2-39.6 15.2-2.4 2.1.2 11.1 1.8 17.2 1.3 5 1.7 13.2 1.7 13.2h132.2s1.6-33-.6-39.8-7.1-2.9-21.9-4.5c-14.8-1.6-28.7-10.3-31-13.2l.3-60-38.4 4.2z" fill="#f3d4cf" stroke-width="none" opacity="1" stroke="none"></path></g><g id="svga-group-chinshadow-single"><path id="SvgjsPath12012" d="M86.1 156.4c4.7.8 10.3 1 10.3 1s11.6-.6 15.5-2.3c.7-.3 2.1-1.4 3.7-2.8l.3-50.7-38.4 4.2s4 31.4 8.6 50.6z" fill="#d4958a" stroke-width="none" opacity="1" stroke="none"></path></g><g id="svga-group-humanbody-front"><path id="SvgjsPath12017" d="M72.1 183.1s14.6-.2 20.4 2.6c5.8 2.9 12.7 2.4 16.1-1s21.6-7 21.6-7-19.7 1.9-25 4.6c-5.3 2.7-22.3-2.8-33.1.8z" fill="#d4958a" stroke-width="none" opacity="1" stroke="none"></path><path id="SvgjsPath12018" d="M74.2 173.2c6.7-1.3 14.7-6.4 14.7-6.4l6.2 5.5c-4.3-7.9-12.7-41.1-12.7-41.1l-.7.7c1.7 10.5 3.9 21.9 6.1 29.7 0 0-6 8.2-13.6 11.6z" fill="#d4958a" stroke-width="none" opacity="1" stroke="none"></path><path id="SvgjsPath12019" d="M170.7 188.5c-.1-2.1-.2-4.1-.4-6.2-.1-1-.3-2.1-.6-3.2-.2-.5-.4-1-.6-1.6-.2-.5-.6-1-1-1.5s-.9-.9-1.5-1.1c-.6-.3-1.1-.4-1.7-.6-1.1-.2-2.2-.2-3.2-.2-2.1 0-4.1.1-6.1.1s-4-.1-6-.2-4-.4-6-.7c-1-.2-2-.4-2.9-.6l-1.5-.4c-.5-.1-1-.3-1.4-.4-3.8-1.1-7.6-2.6-11.2-4.4l-1.3-.7-1.3-.7c-.4-.2-.9-.5-1.3-.8s-.9-.5-1.3-.8-.8-.5-1.3-.8l-1.2-.9-.6-.5-.3-.2-.3-.2c-.2-.2-.4-.3-.5-.5l-.2-.3v-44.6l-.1-15v-.6l-.6.1c-6.4.8-12.9 1.5-19.3 2.3l-19.1 2.3v.5l.1.4.1.9.2 1.8c.1 1.2.3 2.3.4 3.5l.9 7c.6 4.7 1.3 9.4 2.1 14 .8 4.7 1.5 9.3 2.5 14 .9 4.5 1.8 9 3 13.5-1.1 1.4-2.3 2.7-3.6 4-1.3 1.3-2.8 2.6-4.3 3.8-1.5 1.1-3.1 2.2-4.8 3l-1.3.6c-.4.2-.9.3-1.3.5l-2.7 1c-7.2 2.7-14.5 5.3-21.8 7.7l-5.5 1.8c-1.8.6-3.7 1.3-5.5 2.2-.4.2-.9.5-1.3.7-.4.3-.9.5-1.3.9l-.6.5c-.2.2-.5.5-.6.8-.3.5-.4 1.1-.5 1.6-.2 1.1-.1 2.1 0 3.1s.3 2 .4 2.9c.4 1.9.8 3.8 1.3 5.7l.8 2.8c.3.9.5 1.8.7 2.8.4 1.9.7 3.8.9 5.7s.4 3.8.5 5.7v.8h133.4v-.8c.2-4.1.4-8.2.5-12.3s.2-8.2.2-12.3c0-1.8-.1-3.8-.1-5.9zm-67.4 30.3H70.2l-16.5-.1-16-.1c-.1-1.8-.2-3.5-.4-5.3-.2-1.9-.4-3.9-.8-5.8-.2-1-.4-1.9-.7-2.9l-.7-2.8c-.5-1.9-.9-3.7-1.2-5.6-.2-.9-.3-1.9-.4-2.8-.1-.9-.1-1.9 0-2.7.1-.4.2-.8.4-1.1.1-.2.2-.3.3-.4l.5-.4c.3-.3.7-.5 1.1-.8.4-.2.8-.5 1.2-.7 1.7-.8 3.5-1.4 5.3-2l5.5-1.8c7.3-2.4 14.6-5 21.8-7.8l2.7-1c.5-.2.9-.3 1.4-.5l1.4-.6c1.8-.9 3.4-2 5-3.2s3-2.5 4.4-3.9 2.7-2.9 3.8-4.5l.2-.3-.1-.3c-1.3-4.5-2.3-9.1-3.3-13.7s-1.9-9.3-2.7-13.9c-.8-4.6-1.6-9.3-2.4-14l-2.2-13.9 19.3-1.8c6.2-.6 12.3-1.2 18.5-1.8l-.2 14.4-.2 15-.3 30v.4l.2.2.6.7.6.6.3.3.3.2.6.5c.4.3.9.6 1.3.9.4.3.9.6 1.3.9.4.3.9.5 1.3.8s.9.5 1.3.8l1.4.8 1.4.7c.5.2.9.5 1.4.7l1.4.7c1 .4 1.9.8 2.9 1.2s1.9.8 2.9 1.1l1.5.5c.5.2 1 .3 1.5.4.5.1 1 .3 1.5.4l1.5.4c1 .3 2 .4 3 .6 2 .4 4.1.6 6.2.8 2.1.2 4.1.2 6.2.2 2.1 0 4.1-.1 6.1-.1s4 .1 5 1.3c.5.6.9 1.4 1.2 2.3.3.9.4 1.9.6 2.8.3 2 .4 4 .5 6s.1 4.1.2 6.1c.1 7.9-.1 15.8-.4 23.7-10.8.1-21.5.1-32.3.2h-33.1z" fill="#c5796d" stroke-width="none" opacity="1" stroke="none"></path><path id="SvgjsPath12020" d="M150.7 219.2 147 198l-.4 21.2z" fill="#d4958a" stroke-width="none" opacity="1" stroke="none"></path><path id="SvgjsPath12021" d="M47.3 203.5s2.2 11.5 2.9 15.7h3.5l-6.4-15.7z" fill="#d4958a" stroke-width="none" opacity="1" stroke="none"></path></g><g id="svga-group-clothes-single"><path id="SvgjsPath12152" d="M83.3 143.2c-.5.1-14.9 3.7-17.3 4.9-2.5 1.2-1.2 6.9-2.2 7.8-.9.9-12 12.7-11.3 14s6.1 4 5.8 5.5c-.3 1.5-.9 2-.9 2s-22.5 5.4-24.7 7.5c-2.1 2.1-3.5 6.9-2.1 9.8 0 0-.8 4.8.1 10s1.8 9.4 1.8 9.4l.2 5.8h140.9s-.6-15-.4-17.9 1.8-13.7.7-16.2-1.6-5.1-1.6-5.1-1.6-7.5-5.5-8.9c-4-1.3-20.1.7-23 0s-.2-.9-.2-.9 2.2-1.6 2-3.1-4.9-4.4-6-7.3 0-6.4-2.4-7.5-5.1-3.1-8-6c-2.9-2.9-12.2-4-12.2-4s0 12.2-.2 14.2.2 8-.2 11.1c-.4 3.1-14.6 15.7-15.7 16.8S88 173.6 86 170.9c-2-2.7 1.3-6 1.3-9.1S84 148.8 84 147s-.7-3.8-.7-3.8z" fill="#7a297b" stroke-width="none" opacity="1"></path><path id="SvgjsPath12153" d="M57.6 175.2zm116.6 25.7c.4-3.1.8-6.3.9-9.5.1-1.6.2-3.2-.1-5 0-.4-.3-1.1-.4-1.3-.1-.3-.3-.7-.4-1.1-.2-.7-.5-1.4-.6-2.2-.1-.4-.2-.7-.2-1.1l-.3-1.2c-.2-.8-.5-1.6-.8-2.4-.6-1.5-1.3-3.1-2.5-4.4-.6-.7-1.3-1.3-2.2-1.7-.4-.2-.9-.3-1.3-.4-.4-.1-.8-.1-1.3-.2-1.6-.1-3.3-.1-4.9-.1-3.2.1-6.4.2-9.5.4-1.6.1-3.2.1-4.7.1h-.6a5 5 0 0 0 1.1-1.6c.2-.6.4-1.4.1-2.2-.3-.7-.7-1-1-1.4-1.4-1.4-2.8-2.6-3.9-3.9-.3-.3-.5-.7-.7-1-.2-.3-.3-.7-.4-1.1-.2-.8-.3-1.6-.4-2.6-.1-.9-.1-1.9-.5-3-.2-.5-.6-1.1-1.1-1.6-.2-.2-.5-.4-.8-.5l-.6-.3c-1.6-.8-3-1.9-4.4-3-.7-.6-1.4-1.2-2-1.8-.6-.6-1.5-1.4-2.4-1.9-1.8-1-3.6-1.5-5.5-2-1.8-.5-3.7-.8-5.6-1.1l-1.1-.1v1.1c0 4.1 0 8.1-.1 12.2 0 .5 0 1-.1 1.5l-.1.8V161.2c0 2 .1 4.1-.1 6 0 .2-.1.5-.1.7l-.1.2-.1.3c-.2.4-.4.8-.7 1.2-.6.8-1.2 1.6-1.9 2.3-1.3 1.5-2.7 3-4.2 4.4s-2.9 2.9-4.4 4.2l-2.2 2.1-1.1 1.1-.6.5c-.3-.1-.7-.4-1.1-.7l-1.2-.9c-.8-.6-1.5-1.3-2.2-2-1.5-1.4-2.9-2.8-4.3-4.3s-2.8-2.9-4.1-4.5c-.7-.8-1.4-1.5-1.6-2.3-.2-.8-.1-1.8.3-2.7.3-.9.7-1.9 1.1-2.9.3-1 .5-2.1.3-3.2-.3-2.1-.9-4-1.4-6-.5-1.7-.9-3.3-1.4-5-.1-.3-.2-.6-.2-.9l-.3-1.5c-.1-.5-.1-1-.2-1.5l-.3-1.5-.2-.7-.1-.4-.1-.2v-.2s0-.1-.1-.1c-.4.1-.6.1-.9.2l-.8.2-1.7.4-3.3.8c-2.2.6-4.4 1.1-6.7 1.7-1.1.3-2.2.6-3.3 1-.3.1-.6.2-.8.3-.3.2-.6.4-.8.6-.4.5-.7 1.1-.8 1.7-.3 1.2-.3 2.4-.4 3.5 0 .6-.1 1.1-.2 1.6 0 .1-.1.2-.1.3v.1s-.1.1-.2.1l-.6.6c-3.2 3.3-6.3 6.7-9.2 10.3-.4.5-.7.9-1 1.4-.2.2-.3.5-.5.8-.1.1-.2.3-.2.5v.5c0 .1.1.3.1.3l.1.1c.5.7 1 .9 1.4 1.3l1.4 1c.9.7 1.9 1.4 2.5 2.1.2.2.2.4.3.4v.1c0 .1-.1.2-.1.4-.1.2-.2.5-.3.7 0 .1-.1.2-.2.3v.1c-5.8 1.4-11.7 2.9-17.5 4.6-1.5.4-2.9.9-4.4 1.4l-1.1.4-1.1.5c-.4.2-.9.5-1.1.9-.3.3-.5.6-.8 1-.9 1.4-1.5 2.9-1.8 4.5-.2 1.5-.3 3.2.4 4.7-.2 1.6-.3 3.2-.3 4.8 0 1.7.2 3.3.4 5l1.9 9.5.2 5.7v.8h.8l35.2-.3c11.7-.1 23.5-.2 35.2-.2 11.7 0 23.5 0 35.2.1l35.2.3h.7v-.7l-.2-9.5-.1-4.7v-2.4c.4-.1.4-.8.5-1.6zm-68.7-19.1c1.5-1.4 3-2.8 4.4-4.2 1.5-1.4 2.9-2.9 4.3-4.4.7-.8 1.4-1.6 2-2.4.3-.4.6-.9.9-1.4l.2-.4c0-.1.1-.2.1-.3.3-.3.6-.5.9-.8.8-.7 1.7-1.3 2.6-2 1.7-1.4 3.4-3.2 4.3-5.5.4-1.1.6-2.5.3-3.7-.3-1.2-.8-2.3-1.6-3.2-1.4-1.8-3.3-3.2-5.3-4.1 1.6 1.6 3 3.2 4 5 .5.9.9 1.8 1 2.7.1.9 0 1.8-.3 2.7-.7 1.8-2 3.4-3.5 5-.7.8-1.5 1.6-2.2 2.5l-.1.1c.2-2 .1-3.9.1-5.9v-3.7l.1-.8c0-.5.1-1.1.1-1.6.1-3.7.2-7.4.2-11.1 1.4.2 2.8.5 4.2.8 1.8.4 3.5 1 5 1.8.8.4 1.2.9 1.9 1.6.7.7 1.4 1.3 2.1 1.9.2.2.5.4.7.6.4 1.1.8 2.2 1.1 3.3.4 1.6.7 3.2.6 4.7 0 .4-.1.7-.2 1.1-.1.3-.3.5-.6.9-.5.6-1.1 1.2-1.6 1.9-1.1 1.2-2.1 2.5-3.1 3.9 1.3-1.1 2.5-2.2 3.6-3.3.6-.6 1.2-1.2 1.7-1.8.3-.2.6-.7.8-1.1.2-.4.2-.9.3-1.3.1-1.8-.3-3.4-.9-5-.3-.9-.7-1.8-1.2-2.6 1.1.8 2.2 1.6 3.5 2.2.2.1.4.2.7.3.1.1.3.1.4.2.2.2.4.4.5.7.2.6.3 1.5.4 2.5.1.9.2 1.9.5 2.9.1.5.4 1 .6 1.5 0 .1.1.1.1.1v.3c0 1.2-.2 2.4-.7 3.4-.5 1-1.3 1.9-2.2 2.5-1.9 1.4-4.1 2.6-6.3 3.8l-6.5 3.6c-4.3 2.4-8.7 4.8-12.9 7.5-1.1.7-2.1 1.4-3.1 2.1l-1.5 1.2-.4.4c-.1.1-.2.3-.3.4l-.5.8c-1.2 1.9-2.3 3.9-3.4 5.8-1.4-1.1-2.8-2.2-4.3-3.1.4-.4.8-.8 1.1-1.2.7-.7 1.3-1.4 1.9-2.1.5-.6 1.1-1.3 1.6-2l.4-.3 1.1-1 2.4-2.4zm-2.4 14.5c0 .1 0 .1 0 0zm-2.7-11.7zm-36.2-28.4c.1-.1.1-.2.2-.3.1-.2.1-.4.2-.5.1-.6.1-1.2.2-1.8 0-1.1.1-2.3.3-3.3.1-.5.3-1 .6-1.4.1-.2.3-.3.5-.5.2-.1.5-.2.8-.3 1.1-.4 2.1-.8 3.2-1.1 2.2-.7 4.4-1.3 6.6-1.9l3.3-.9 1.7-.5.8-.2c.2-.1.6-.1.7-.2v.1l.1.2.1.4.2.7c.1.5.2 1 .2 1.5.1.5 0 1 .1 1.5l.3 1.5c.1.3.2.6.2.9-1.8.7-3.6 1.4-5.2 2.3-.9.5-1.8 1.1-2.5 1.9-.7.8-1.4 1.7-1.7 2.7-.3 1-.3 2.2-.1 3.2.1 1 .3 2.1.6 3.1.5 2 1.1 4 1.8 5.9l1.1 2.9c.2.5.3.9.5 1.4.2.6.6 1.1 1 1.4 1.6 1.4 3.4 2.4 5.2 3.4 1.8 1 3.7 1.9 5.5 2.7 1.8.9 3.8 1.6 5.5 2.6-3.4-2.2-7.2-3.9-10.7-6-1.7-1.1-3.5-2.1-5-3.4-.3-.3-.6-.7-.7-1.1-.2-.5-.3-1-.5-1.5l-1.1-2.9c-.7-1.9-1.4-3.8-1.8-5.8l-.6-3c-.2-1-.2-1.9 0-2.9.4-1.9 2-3.3 3.7-4.4 1.6-1 3.3-1.8 5-2.7.4 1.6.8 3.3 1.2 4.9.5 2 1 4 1.2 5.9.3 1.9-.8 3.7-1.5 5.7-.2.6-.4 1.2-.4 1.9l-.6-1.2c-.6-1.1-1.1-2.3-1.5-3.4-.4-1.1-.6-2.2-.6-3.4 0-1.2.1-2.5.2-3.8-.9 1-1.5 2.3-1.8 3.7-.3 1.4-.2 2.9.3 4.3.5 1.3 1.3 2.5 2.1 3.5.6.8 1.3 1.5 2.1 2.1.2.5.4.9.7 1.2.3.4.7.8 1 1.2 1.3 1.6 2.7 3.1 4.1 4.6 1.4 1.5 2.8 3 4.3 4.4.7.7 1.5 1.4 2.3 2.1.4.3.8.7 1.2 1 .4.3.8.6 1.5.9-.2.3-.5.6-.8.9-.6.7-1.2 1.5-1.7 2.3-.3.5-.6.9-.9 1.4l-1.5-.9c-1.1-.6-2.2-1.2-3.5-1.6-1.2-.4-2.3-.7-3.5-1.1-2.3-.7-4.7-1.4-7-2.2-2.3-.8-4.6-1.6-6.6-2.8-.5-.3-1-.6-1.3-.9-.2-.1-.3-.3-.4-.4v-.2l-.1-.5c-.4-1.3-.8-2.4-1.3-3.6-1-2.3-2-4.5-3.1-6.7-.6-1.1-1.1-2.2-1.8-3.3-.3-.6-.6-1-.8-1.6-.2-.5-.4-1.1-.5-1.7-.5-2.2-.7-4.5-1.3-6.7-.1.4 0 .4 0 .3zm-8.6 15.3-1.4-1c-.4-.3-.9-.7-1.1-.9 0-.1 0-.1.1-.2.1-.2.2-.4.4-.7.3-.5.6-.9 1-1.4 2.7-3.6 5.8-7 8.9-10.4l.3-.4c.2 2.2.2 4.4.6 6.6.1.6.2 1.2.4 1.9.2.6.5 1.3.7 1.8l1.5 3.3c1 2.2 1.9 4.5 2.8 6.8.4 1.1.8 2.3 1.1 3.4l.1.4.1.3c0 .1.1.3.2.4.2.4.5.8.8 1 .6.5 1.1.9 1.7 1.2 2.3 1.3 4.6 2.1 7 2.9 2.4.8 4.7 1.4 7.1 2.1l3.6.9c1.1.3 2.2.8 3.2 1.3 2 1 3.9 2.2 5.8 3.5-.2-.1-.5-.1-.7-.2-2.4-.6-4.8-1.1-7.2-1.5-4.8-.8-9.7-1.5-14.6-2.1-2.4-.3-4.9-.5-7.3-.8-.3 0-.6-.1-.8-.1H69.6c-.1 0-.1-.1-.2-.1-.3-.3-.7-.8-1-1.2-.6-1-1.2-2.1-1.7-3.1-.5-1.1-1.1-2.2-1.7-3.3-.7-1.2-1.5-2.1-2.3-3-1.1-1.3-2.3-2.5-3.6-3.7v-.3c-.2-.5-.4-.8-.6-1-1-1.1-1.9-1.7-2.9-2.4zm47.6 48c-11.7-.1-23.5-.1-35.2-.2l-34.5-.3-.1-5v-.2l-1.8-9.6c-.2-1.6-.4-3.1-.4-4.7s.1-3.2.3-4.7v-.3l-.1-.2c-.5-1.1-.6-2.6-.3-3.9.2-1.4.7-2.7 1.5-3.9.2-.3.4-.6.6-.8l.3-.3c.1-.1.2-.1.3-.2l1-.5 1-.4c1.4-.5 2.8-1 4.3-1.4 5.8-1.8 11.7-3.3 17.5-4.8h.2l.1-.1c.3-.2.3-.3.5-.5.1-.1.2-.3.3-.5.2-.3.3-.6.3-.9v-.2c1 1.2 1.9 2.4 2.8 3.6.3.5.7 1 1 1.5l.5.8c.1.2.3.5.4.8l1.5 3.3c.5 1.1 1 2.3 1.7 3.4.3.6.7 1.1 1.3 1.7.2.1.3.3.5.4.1.1.2.1.4.1l.3.1c.4.1.7.1 1 .2 2.5.4 4.9.5 7.4.7 4.9.3 9.8.4 14.6 1 2.4.3 4.8.8 7.2 1.4 1.2.4 2.3.8 3.3 1.4.1.1.2.1.4.2h.1l.2.1c.6.3.6-.9.5-.7 0-.1-.1-.1-.1-.1l-.1-.1-.2-.2-.7-.6c-.4-.4-.9-.8-1.3-1.1 1.4-1.8 2.8-3.5 4.1-5.3l.6-.8.2-.3.3-.3c.5-.4 1-.7 1.5-1 1-.6 2.1-1.3 3.2-1.9l13.1-7.1c2.2-1.2 4.3-2.4 6.5-3.7 2.1-1.3 4.3-2.6 6.3-4.2 1-.8 1.9-1.9 2.4-3.2.4-.9.5-1.9.5-2.8 1.2 1.4 2.6 2.6 3.7 3.8.3.3.6.6.6.8 0 0 0 .3-.1.5-.2.4-.6.9-1.1 1.3-.2.1-.4.1-.6.2-.1 0-.2.1-.4.1-.1 0-.1 0-.2.1-.1 0-.2.1-.3.1-1.2.4-2.1 1-3 1.6-3.7 2.4-7 5.2-10.5 7.6-.9.6-1.7 1.2-2.6 1.7-.4.2-.9.5-1.3.6-.5.2-1.1.3-1.6.5-2.1.8-4.1 1.6-6 2.6-2 1-3.9 2-5.7 3.2-.9.6-1.8 1.2-2.7 1.9-.8.7-1.7 1.5-2.1 2.5.6-.9 1.6-1.5 2.5-2 .9-.6 1.9-1.1 2.8-1.5 1.9-1 3.9-1.8 5.9-2.7 2-.8 4-1.6 6-2.3l1.5-.5c.6-.2 1.2-.5 1.7-.7 1-.6 1.9-1.2 2.8-1.8 3.6-2.6 6.8-5.4 10.2-7.9.6-.4 1.2-.9 1.9-1.2.1.1.1.2.2.3.1.1.2.1.2.1l.1.1c.2.1.3.1.4.2.2.1.5.1.7.2.4.1.9.2 1.4.2h1.2c1.6 0 3.2-.1 4.8-.2 3.2-.2 6.3-.4 9.5-.5 1.6 0 3.1 0 4.6.1 1.6.1 2.6.5 3.6 1.6.9 1 1.6 2.4 2.2 3.8.3.7.5 1.4.7 2.2.1.4.2.7.3 1.1l.3 1.2c.2.8.4 1.6.7 2.4.1.4.3.8.5 1.2.1.2.2.4.2.5 0 .1.1.2.1.4.2 1.4.2 3 .1 4.5-.1 3.1-.5 6.3-.8 9.4-.1.8-.1 1.6-.1 2.4v2.4l.1 4.8.4 8.8-19.9.1c.2-1.6.5-3.1.8-4.7.3-1.7.6-3.4.8-5.1.3-1.7.5-3.4.7-5.1.1-.9.2-1.7.3-2.6l.1-1.3c0-.4.1-.9.1-1.2.2-1.4 1.1-2.9 2-4.2.9-1.4 2-2.7 3.1-4 2.2-2.6 4.6-5.1 7-7.6-2.9 1.9-5.6 4.1-8.1 6.6-1.2 1.2-2.4 2.6-3.5 4-1 1.5-2.1 3-2.4 5.1l-.8 10.4c-.1 1.7-.2 3.5-.3 5.2 0 1.6-.1 3.2.1 4.8l-14.5.1c-12 .1-23.8.1-35.5.1zM47 202.6c-.3-.6-.7-1.4-1.2-2-.2-.3-.5-.6-.8-.9l-.8-.8c-1.1-.9-2.3-1.8-3.6-2.4-1.2-.7-2.6-1.2-3.9-1.7-1.3-.5-2.7-.9-4.1-1 2.5 1.2 4.9 2.6 7.2 4.1 1.1.8 2.2 1.6 3.1 2.5.2.2.5.4.7.7.2.2.4.5.6.7.2.2.3.5.5.8.2.2.3.6.4.9 1.1 2.5 1.9 5.1 2.9 7.7 1 2.6 1.9 5.2 3 7.8-.3-2.8-.9-5.5-1.5-8.2-.6-2.9-1.4-5.6-2.5-8.2z" fill="#5b0c5c" stroke-width="none" opacity="1"></path><path id="SvgjsPath12154" d="M110.3 203.4c0-.6-.1-1.3-.3-1.9-.3-1.2-.8-2.4-1.4-3.4-.6-1.1-1.3-2.1-2-3-.8-.9-1.6-1.8-2.5-2.6-.5-.4-.9-.8-1.5-1.1l-.6-.3c.1-.4-.1-.9-.5-1.1-.5-.3-1.1-.1-1.3.4 0 .1-.1.1-.1.2H99c-.7.1-1.3.2-2 .4-1.3.3-2.6.8-3.7 1.5-1.2.7-2.3 1.5-3.2 2.7-.9 1.1-1.4 2.7-1.4 4.1 0 2.3-.9 4.8-2.1 7.1l-.9 1.7c-.3.6-.6 1.2-.7 1.9-.1.4-.1.8.1 1.2.2.4.5.7.8.9.7.3 1.2.5 1.8.8.6.3 1.2.5 1.9.7.7.2 1.4.4 2.2.3.4-.1.9-.2 1.3-.6.4-.3.6-.8.8-1.2.3-.8.3-1.6.3-2.3-.1-2.7-.6-5.2-.8-7.7-.2-1.2-.2-2.4 0-3.5.1-.5.3-1 .6-1.5s.7-.9 1.1-1.4c.8-.9 1.8-1.7 2.8-2.5.5-.4.9-.7 1.4-1.1-.8 1.6-1.5 3.1-2.1 4.8-.4 1.1-.8 2.3-1.1 3.5-.1.6-.2 1.2-.3 1.9-.1.6 0 1.3 0 1.9.1 2.3 0 4.6-.5 6.9-.4 2.3-1.2 4.5-2.3 6.6 1.5-1.9 2.5-4.1 3.2-6.4.7-2.3 1.1-4.7 1.1-7.2 0-.6 0-1.1.1-1.7.1-.5.2-1.1.3-1.6.3-1.1.7-2.2 1.1-3.2.1-.2.2-.4.2-.6v.7c0 2.4.4 4.8.8 7 .4 2.3.9 4.5 1 6.8 0 1.1-.3 2.2-.4 3.3l-.7 3.4 1.2-3.3c.3-1.1.8-2.2.9-3.4.2-2.4-.2-4.7-.4-7s-.6-4.6-.4-6.8c.1-1.8.3-3.6.7-5.4l.9 1.5c.3.5.5 1 .6 1.5.1.5.1 1.1.1 1.6.1 2.3 0 4.6 0 7 0 2.3 0 4.6-.1 7 0 .6 0 1.2.1 1.9.1.6.1 1.3.5 2.1.2.4.8.8 1.2.9.5.1.8 0 1.1-.1.6-.1 1.1-.2 1.6-.2.3 0 .8 0 1.2-.2s.6-.6.7-.9c.2-.7.2-1.3.2-1.9v-3.6c0-1.2.1-2.3.3-3.5.1-.6.2-1.3.2-2zm-11.2-11.9-1.8.9c-1.2.6-2.3 1.3-3.3 2.2-.5.4-1 .9-1.5 1.5s-.8 1.3-1 2c-.4 1.4-.4 2.8-.3 4.2.2 2.7.8 5.2 1.1 7.7.1.6.1 1.1-.1 1.6-.1.4-.3.6-.7.7-.4.1-1 .1-1.6 0-.6-.1-1.2-.3-1.8-.4-.6-.2-1.3-.4-1.8-.6-.5-.2-.7-.6-.7-1.2.2-1.2.9-2.3 1.5-3.4 1.3-2.2 2.9-4.5 3.2-7.3.1-.6.2-1.1.3-1.6.2-.5.5-1 .8-1.5.7-.9 1.6-1.7 2.6-2.4s2.1-1.3 3.3-1.8c.6-.2 1.2-.5 1.8-.7.2-.1.5-.1.7-.2 0 .1-.1.1-.1.1l-.6.2zm10.1 20.8c-.1.6-.2 1.1-.4 1.6-.1.2-.2.4-.4.4-.1.1-.2 0-.5 0-.7-.1-1.3-.1-1.9 0h-.7c-.1-.1-.1 0-.1-.2-.1-.3-.2-.8-.2-1.4 0-.5 0-1.1.1-1.7.2-2.3.4-4.7.3-7.1-.1-2.4-.2-4.7-.6-7.1-.1-.6-.2-1.2-.4-1.8-.1-.3-.2-.5-.3-.7.4.6.8 1.1 1.2 1.8 1.2 1.9 2.3 3.9 3.1 6 .4 1.1.7 2 .6 3.2 0 1.2.1 2.4.2 3.6 0 1.1.1 2.3 0 3.4z" fill="#4c034d" stroke-width="none" opacity="1"></path><path id="SvgjsPath12155" d="M131.3 152.1c-1.2-3.3-3-2.5-4.6-4.1s-2.9-1.1-5.3-1.9c0 0 2.9 2.1 3.8 2.5s2.8 6.9 2.5 9.5c-.3 2.6-5.6 8.1-7.3 10.6-1.7 2.5-9.1 9.4-12.4 11.8-3.3 2.4-7 8.3-7 8.3s10.8-9.9 13.9-11.2c3-1.3 12.2-10.2 12.6-12.3.4-2.1 4-4.5 5.3-6.3s-.3-3.6-1.5-6.9zm34.9 29.5c1.1 1.7 3-.5 2.2-.9s-1.1-5.8-2.6-6.7-17.8.7-21.8.7-5.6 3.3-11.2 6.2c0 0 5.8-1.3 10-3s10.8-.9 15.3-.7c4.5.2 7 2.7 8.1 4.4zm4.5 19c.4-5.8.8-14.1.8-14.1s-1.4-.4-3.4.4-3.8 2.9-7.7 7.8c0 0 5-2.2 6.9-1.6 1.9.7 1.1 11 1.2 15.7.1 4.8 1.9 8.3 2.6 9.1.8.8-.8-11.5-.4-17.3zm-94.9-23.9c-1.1-1.3-7.1-16.1-7.5-19s.4-8.2.1-8.3c-3.8-1.9-4.6 7.8-.9 13.9 3.7 6.1 5.3 15.1 6.7 16.4 1.4 1.3 21.8 8.6 19.8 7.4-2-1.3-17.2-9.1-18.2-10.4zm-4.6 8.9c-.9-1.4-6.6-11.1-9-12.7-2.4-1.6-5.7-3.4-5.7-3.4 2.4 1.1 9.1 9.9 11.1 13.2s1.2 5.1 2.9 5.4c1.7.3 11.8 2.1 11.8 2.1s-10.2-3.2-11.1-4.6z" fill="#893c8a" stroke-width="none" opacity="1"></path></g><g id="svga-group-head" transform="matrix(1,0,0,1,0,0)"><g id="svga-group-ears-left-move" transform="matrix(1,0,0,1,0,0)"><g id="svga-group-ears-left"><path id="SvgjsPath12958" d="M63.09 94.03s-3.12-7.36-5.69-9.71c-2.57-2.34-7.59-5.02-9.48-4.35-1.9.67 1.12 8.81 2.23 10.6 1.12 1.79 1.12 11.49 1.23 14.39.11 2.9 2.9 6.25 5.02 8.7 2.12 2.45 4.24-1.12 5.69-4.35s1-15.28 1-15.28z" fill="#f3d4cf" stroke-width="none" opacity="1" stroke="none"></path><path id="SvgjsPath12959" d="M61.92 100.31c-.33-2.85-5.11-11.21-6.86-12.8-1.76-1.59-5.69-4.44-5.77-3.52s2.26 5.69 2.34 8.54.17 10.96 1.09 12.72c.92 1.76 5.69 1.51 6.53-.17s2.67-4.77 2.67-4.77z" fill="#e4b3ab" stroke-width="none" opacity="1" stroke="none"></path><path id="SvgjsPath12960" d="M47.07 80.79c-.11.94.06 1.79.25 2.64.4 1.69.98 3.31 1.62 4.9.33.79.68 1.58 1.11 2.33.35.72.47 1.6.59 2.43.22 1.69.26 3.4.32 5.11.04 1.71.03 3.42.05 5.13.03.85-.04 1.71.14 2.62.17.89.52 1.72.93 2.5.82 1.56 1.87 2.94 2.96 4.28.27.33.55.67.83.99.13.16.29.33.47.5.16.18.38.32.6.45.46.25 1.07.32 1.58.14.49-.19.88-.49 1.21-.81.66-.65 1.13-1.41 1.57-2.16.43-.76.81-1.54 1.15-2.34.63-1.74.72-3.45.84-5.17.17-3.44.07-6.86-.15-10.29-.62-1.62-1.31-3.18-2.08-4.71-.79-1.52-1.59-3.06-2.7-4.42-.56-.69-1.24-1.27-1.92-1.8-.69-.53-1.41-1.01-2.15-1.47-1.49-.89-3.07-1.66-4.83-2.01-.44-.07-.91-.11-1.4.01-.22.02-.56.2-.71.44-.18.22-.23.47-.28.71zm.56.1c.04-.18.1-.36.19-.47.1-.11.16-.15.37-.18.35-.08.75-.02 1.14.05 1.6.33 3.13 1.13 4.58 1.96.73.42 1.44.88 2.11 1.38.68.51 1.32 1.03 1.85 1.67 1.07 1.27 1.97 2.74 2.81 4.22.83 1.48 1.63 3.01 2.37 4.53-.03 3.41-.11 6.84-.4 10.23-.16 1.68-.34 3.42-.92 4.9-.73 1.51-1.47 3.09-2.59 4.22-.28.27-.59.49-.9.61-.31.1-.61.06-.9-.09-.55-.33-1.09-1.11-1.65-1.73-1.09-1.3-2.14-2.64-2.94-4.1-.4-.73-.72-1.5-.9-2.28-.17-.76-.15-1.64-.19-2.49-.06-1.71-.14-3.42-.25-5.13-.11-1.71-.25-3.42-.48-5.12-.14-.85-.25-1.71-.66-2.52-.43-.72-.75-1.52-1.07-2.31-.62-1.59-1.13-3.22-1.44-4.89-.14-.84-.26-1.7-.13-2.46z" fill="#e4b3ab" stroke-width="none" opacity="1" stroke="none"></path><path id="SvgjsPath12961" d="M53.38 89.46c.58 1.22 1.11 2.47 1.51 3.75.4 1.29.75 2.59 1.06 3.9.29 1.31.56 2.63.72 3.97l-.08.02c-.42-1.28-.8-2.56-1.2-3.84-.39-1.28-.78-2.56-1.2-3.82-.41-1.27-.78-2.55-1.24-3.8-.38-1.05-.84-2.1-1.49-3 .37 1.58.79 3.15 1.13 4.74.19.9.36 1.8.49 2.71.07.46.13.92.17 1.38.05.46.04.98.04 1.39.05 1.78.28 3.6.53 5.39.14.9.28 1.79.47 2.67.09.44.2.88.32 1.3.01.02.01.04.02.06.04-.85.09-1.71.11-2.56.04-1.28.1-2.55.06-3.83l.08-.01c.17 1.27.2 2.56.25 3.84.03 1.28.04 2.56.05 3.84v.8l-.52-.59c-.4-.46-.51-.9-.68-1.34-.15-.45-.28-.89-.39-1.34-.23-.9-.42-1.8-.58-2.71-.31-1.82-.56-3.63-.58-5.51.09-1.79-.24-3.58-.47-5.39-.26-1.8-.5-3.62-.9-5.4l-.12-.54.35.42c.88 1.08 1.49 2.29 2.09 3.5z" fill="#c5796d" stroke-width="none" opacity="1" stroke="none"></path></g></g><g id="svga-group-ears-right-move" transform="matrix(1,0,0,1,0,0)"><g id="svga-group-ears-right"><path id="SvgjsPath12962" d="M136.91 94.03s3.12-7.36 5.69-9.71c2.57-2.34 7.59-5.02 9.48-4.35s-1.12 8.81-2.23 10.6c-1.12 1.79-1.12 11.49-1.23 14.39-.11 2.9-2.9 6.25-5.02 8.7-2.12 2.45-4.24-1.12-5.69-4.35-1.45-3.23-1-15.28-1-15.28z" fill="#f3d4cf" stroke-width="none" opacity="1" stroke="none"></path><path id="SvgjsPath12963" d="M138.08 100.31c.33-2.85 5.11-11.21 6.86-12.8 1.76-1.59 5.69-4.44 5.77-3.52.08.92-2.26 5.69-2.34 8.54s-.17 10.96-1.09 12.72c-.92 1.76-5.69 1.51-6.53-.17s-2.67-4.77-2.67-4.77z" fill="#e4b3ab" stroke-width="none" opacity="1" stroke="none"></path><path id="SvgjsPath12964" d="M152.66 80.07c-.15-.24-.49-.42-.71-.44-.49-.12-.96-.08-1.4-.01-1.76.35-3.34 1.12-4.83 2.01-.74.45-1.46.93-2.15 1.47-.68.53-1.36 1.1-1.92 1.8-1.11 1.36-1.91 2.9-2.7 4.42-.77 1.54-1.46 3.1-2.08 4.71-.23 3.43-.33 6.85-.15 10.29.12 1.72.22 3.44.84 5.17.34.79.72 1.58 1.15 2.34.44.76.91 1.51 1.57 2.16.33.32.72.62 1.21.81.51.18 1.11.11 1.58-.14.22-.14.44-.27.6-.45.18-.17.34-.34.47-.5.28-.32.55-.66.83-.99 1.09-1.34 2.14-2.72 2.96-4.28.4-.78.75-1.61.93-2.5.17-.92.11-1.77.14-2.62.02-1.71.01-3.42.05-5.13.05-1.71.1-3.42.32-5.11.12-.83.23-1.71.59-2.43.43-.76.78-1.54 1.11-2.33.64-1.59 1.21-3.21 1.62-4.9.18-.85.36-1.7.25-2.64-.06-.23-.11-.48-.28-.71zm-.42 3.27c-.31 1.66-.82 3.3-1.44 4.89-.32.79-.63 1.59-1.07 2.31-.41.81-.52 1.67-.66 2.52-.22 1.7-.37 3.41-.48 5.12-.11 1.71-.2 3.42-.25 5.13-.05.85-.02 1.73-.19 2.49-.18.79-.5 1.55-.9 2.28-.8 1.46-1.85 2.8-2.94 4.1-.56.62-1.1 1.4-1.65 1.73-.29.15-.59.19-.9.09-.31-.12-.62-.34-.9-.61-1.12-1.13-1.86-2.71-2.59-4.22-.58-1.47-.76-3.22-.92-4.9-.29-3.39-.37-6.82-.4-10.23.74-1.52 1.54-3.05 2.37-4.53.84-1.48 1.73-2.95 2.81-4.22.53-.63 1.17-1.16 1.85-1.67.67-.5 1.39-.96 2.11-1.38 1.45-.83 2.98-1.63 4.58-1.96.39-.07.8-.12 1.14-.05.21.03.27.07.37.18.09.11.15.29.19.47.13.77.01 1.63-.13 2.46z" fill="#e4b3ab" stroke-width="none" opacity="1" stroke="none"></path><path id="SvgjsPath12965" d="M146.62 89.46c-.58 1.22-1.11 2.47-1.51 3.75-.4 1.29-.75 2.59-1.06 3.9-.29 1.31-.56 2.63-.72 3.97l.08.02c.42-1.28.8-2.56 1.2-3.84.39-1.28.78-2.56 1.2-3.82.41-1.27.78-2.55 1.24-3.8.38-1.05.84-2.1 1.49-3-.37 1.58-.79 3.15-1.13 4.74-.19.9-.36 1.8-.49 2.71-.07.46-.13.92-.17 1.38-.05.46-.04.98-.04 1.39-.05 1.78-.28 3.6-.53 5.39-.14.9-.28 1.79-.47 2.67-.09.44-.2.88-.32 1.3-.01.02-.01.04-.02.06-.04-.85-.09-1.71-.11-2.56-.04-1.28-.1-2.55-.06-3.83l-.08-.01c-.17 1.27-.2 2.56-.25 3.84-.03 1.28-.04 2.56-.05 3.84v.8l.52-.59c.4-.46.51-.9.68-1.34.15-.45.28-.89.39-1.34.23-.9.42-1.8.58-2.71.31-1.82.56-3.63.58-5.51-.09-1.79.24-3.58.47-5.39.26-1.8.5-3.62.9-5.4l.12-.54-.35.42c-.88 1.08-1.49 2.29-2.09 3.5z" fill="#c5796d" stroke-width="none" opacity="1" stroke="none"></path></g></g><g id="svga-group-faceshape-wrap"><g id="svga-group-faceshape-single"><path id="SvgjsPath11998" d="M135.9 49.8c-6.7-7.4-11.3-13.2-28.8-17.3-1.8-.4-12.3-.4-14.1 0-17.5 4.1-22.1 9.9-28.8 17.3-7.1 7.8-9.5 29-9.5 29 0 21.4 2.7 35.2 5 41.3 2.3 6.2 21.1 25.2 24.9 27s15.5 2.3 15.5 2.3 11.6-.6 15.5-2.3c3.8-1.8 22.6-20.8 24.9-27s5.1-19.9 5-41.3c-.1 0-2.5-21.2-9.6-29z" fill="#f3d4cf" stroke-width="none" opacity="1" stroke="none"></path><path id="SvgjsPath11999" d="M107.1 32.5c-1.8-.4-12.3-.4-14.1 0-17.5 4.1-22.1 9.9-28.8 17.3-7.1 7.8-9.5 29-9.5 29 0 21.4 2.7 35.2 5 41.3 2.3 6.2 21.1 25.2 24.9 27s15.5 2.3 15.5 2.3 11.6-.6 15.5-2.3c3.8-1.8 22.6-20.8 24.9-27s5.1-19.9 5-41.3c0 0-2.4-21.2-9.5-29-6.8-7.4-11.4-13.2-28.9-17.3zm35 31.2c.7 2.5 1.2 5 1.6 7.5.4 2.5.8 5 1 7.5-.1 3.9-.3 7.8-.7 11.7l-.3 2.9-.3 2.9-.3 2.9-.4 2.9c-.6 3.9-1.2 7.7-2.1 11.4-.5 1.9-1 3.7-1.6 5.5-.81 1.95-2.2 3.8-2.7 4.6-1.2 1.5-2.4 3-3.7 4.5-1.3 1.5-2.6 2.9-3.9 4.4-2.6 2.9-5.4 5.6-8.2 8.3-1.4 1.3-2.8 2.7-4.3 3.8-.4.3-1.22.92-2.1 1.3-.8.3-1.7.5-2.6.7-1.8.4-3.8.6-5.7.9-1.9.2-3.8.4-5.7.5-1.9-.1-3.8-.2-5.7-.4-1.9-.2-3.9-.4-5.7-.7-.9-.2-2.76-.53-4.8-1.9-1.5-1.1-3-2.4-4.4-3.7-2.9-2.6-5.7-5.3-8.4-8.2-2.7-2.8-5.4-5.7-7.8-8.8-.6-.8-1.2-1.5-1.7-2.3-.3-.4-.5-.8-.7-1.2l-.3-.6c-.1-.2-.2-.4-.3-.7-.7-1.8-1.2-3.7-1.7-5.6s-.9-3.8-1.2-5.7c-.2-1-.3-1.9-.5-2.9l-.4-2.9c-1-7.8-1.2-15.6-1.1-23.4.7-4.6 1.7-9.3 3-13.7.7-2.2 1.4-4.5 2.3-6.6.4-1.1.9-2.1 1.4-3.1s1.1-2 1.7-2.9c1.87-2.75 3.8-4.3 4.6-5.2 1.6-1.7 3.3-3.3 5-4.7 1.8-1.4 3.7-2.6 5.7-3.7s4.1-2 6.3-2.8l1.6-.6c.5-.2 5.91-1.79 8.3-2.1 1.2-.1 2.3-.1 3.5-.2 2.3-.1 4.65-.14 6.95-.14.1 0 3.35.64 3.35.64l1.8.4 1.7.4c2.3.6 4.5 1.3 6.7 2.3.3.1.5.2.8.3l.8.4c.5.3 1.1.5 1.6.8l1.5.9 1.5.9c2 1.3 3.8 2.8 5.4 4.5 1.7 1.7 3.3 3.4 4.9 5.2 1.7 1.9 2.9 4.2 3.9 6.6 1 2.3 1.8 4.8 2.4 7.2z" fill="#c5796d" stroke-width="none" opacity="1" stroke="none"></path></g></g><g id="svga-group-mouth-single-move" transform="matrix(1,0,0,1,0,0)"><g id="svga-group-mouth-single"><path id="SvgjsPath14744" d="M83.37 118.08s7.34 2.64 14.23 1.87c0 0 1.3 1.45 2.1 1.59s2.44-1.4 2.44-1.4 3.77 1.01 6.26.92 7.8-.63 10.24-2.12c0 0-3.89 8.66-7.39 12.12-3.5 3.46-11.34 6.02-18 3.71-6.65-2.31-9.48-15.12-9.88-16.69z" fill="#da7c87" stroke-width="none" opacity="1"></path><path id="SvgjsPath14745" d="M84.44 119.22s4.71 11.74 9.64 13.5c4.93 1.76 10.14 1.49 14.43-2 4.3-3.49 8.5-10.57 8.5-10.57s-9.98 2.35-17.59 1.92c-7.6-.43-15.2-2.67-14.98-2.85z" fill="#000000" stroke-width="none" opacity="1"></path><path id="SvgjsPath14746" d="M99.43 122.07c-7.32-.42-14.62-2.5-14.97-2.82.1.24.83 2.03 1.97 4.23 1.33.92 2.92 1.88 4.46 2.41l.84-1.34-.22 1.45s4.59 1.56 9.05 2.02c4.46.46 10.27-1.12 10.27-1.12l.41-1.05.12.75s.48-.04 1.51-.49c2.4-3.03 4.15-5.98 4.15-5.98s-9.99 2.37-17.59 1.94z" fill="#ffffff" stroke-width="none" opacity="1"></path></g></g><g id="svga-group-eyes-left-move" transform="matrix(1,0,0,1,0,0)"><g id="svga-group-eyes-left"><g id="svga-group-eyesback-left"><path id="SvgjsPath14362" d="M80.2 77.2c7.5 0 13.5 5.8 13.5 13s-6 13-13.5 13-13.5-5.8-13.5-13 6-13 13.5-13z" fill="#ffffff" stroke-width="none" opacity="1"></path></g><g id="svga-group-eyesiriswrapper-left" transform="matrix(1,0,0,1,0,0)"><g id="svga-group-eyesiriscontrol-left" transform="matrix(1,0,0,1,0,0)"><g id="svga-group-eyesiris-left"><path id="SvgjsPath12036" d="M80.2 84.6c3.1 0 5.6 2.5 5.6 5.6s-2.5 5.6-5.6 5.6-5.6-2.5-5.6-5.6 2.5-5.6 5.6-5.6z" fill="#7b5c33" stroke-width="none" opacity="1"></path><path id="SvgjsPath12037" d="M80.2 87.2c1.7 0 3 1.3 3 3s-1.3 3-3 3-3-1.3-3-3 1.3-3 3-3z" fill="#000000" stroke-width="none" opacity="1"></path><path id="SvgjsPath12038" d="m79.5 87.8-.6-.6c-.2-.2-.5-.3-.8-.3s-.6.1-.8.3c-.2.2-.3.5-.3.8s.1.6.3.8l.6.6c.2.2.5.3.8.3s.6-.1.8-.3c.4-.6.4-1.2 0-1.6zm2.7 5.1c1 0 1-1.5 0-1.5-.9 0-.9 1.5 0 1.5z" fill="#ffffff" stroke-width="none" opacity="1"></path></g></g></g><g id="svga-group-eyesfront-left"><path id="SvgjsPath14370" d="M80.2 76.7c-7.8 0-14.1 6.1-14.1 13.6s6.3 13.6 14.1 13.6 14.1-6.1 14.1-13.6S88 76.7 80.2 76.7zm0 20.5c-5.5 0-10.7-2.6-10.8-3.5s.9-3.9 3.2-6.4 8-3.3 12.8-1.4 5.9 7.5 5.9 7.5c.1 1.7-5.6 3.8-11.1 3.8z" fill="#f3d4cf" stroke-width="none" opacity="1" stroke="none"></path><path id="SvgjsPath14371" d="m90.2 90.3-.9-1.5c-1-1.5-2.4-2.8-4.2-3.7-2.2-1.1-4.8-1.4-7.2-1-1.2.2-2.4.6-3.5 1.1-1 .5-2 1.2-2.8 2.1h-.1c-.7-.4-1.4-.5-2-1-.6-.5-1-1.1-1.3-1.8-.1-.2-.5-.1-.5.1.1.9.5 1.7 1.1 2.3.5.5 1.3 1.2 2.1 1.3-.1.2-.3.4-.4.6-.7-.2-1.5-.1-2.2-.3-1.1-.3-1.8-1.1-2.6-1.9-.2-.2-.5 0-.4.2.4 1.1 1.3 1.8 2.4 2.3.6.3 1.5.7 2.3.7-.1.2-.2.5-.3.8h-.1c-.8 0-1.6.4-2.4.3-1.2.1-2.2-.6-2.8-1.5-.2-.2-.5 0-.4.2.9 1.4 3.6 2.9 5.4 2.2 0 .2-.1.4-.1.6-.1.3-.2.7-.2 1.1v.2c0 .1.1.2.1.3l.3.3.1.1c-1.1-.1-2.5.9-2.7 1.8 0 .2.2.4.4.3.4-.3.8-.7 1.2-.9.4-.2 1.3-.5 1.8-.7.1.1.2.1.3.2-.4.1-.7.4-1 .7-.4.5-.5 1.1-.4 1.7.1.2.4.2.4-.1 0-.5.3-.9.6-1.2.3-.3.8-.4 1.1-.7.1.1.2.1.4.2 2.1.9 4.4 1.5 6.8 1.7 2.4.2 4.7-.1 7-.7 1.1-.3 2.2-.7 3.3-1.1.5-.2 1-.5 1.5-.8.2-.2.4-.3.6-.6s.3-.5.3-.8c-.1-1-.5-2.1-1-3.1zm.8 3.9c-.2.2-.4.4-.6.5-.5.3-1 .6-1.5.8-1.1.4-2.2.7-3.3.9-2.3.4-4.6.6-6.8.4-2.3-.2-4.5-.8-6.6-1.6-.5-.2-1-.5-1.5-.7-.2-.1-.5-.3-.7-.5-.1-.1-.2-.2-.2-.3 0 0 0-.1-.1-.1v-.2c0-.4.1-.8.2-1.1.7-1.5 1.6-2.9 2.8-4 1.5-1.4 3.6-2.2 5.7-2.6 2.1-.4 4.3-.2 6.3.6 1.8.7 3.5 1.8 4.9 3.2.8 1.2 1.5 2.5 1.8 3.9-.1.3-.2.6-.4.8z" fill="#000000" stroke-width="none" opacity="1" stroke="none"></path></g></g></g><g id="svga-group-eyes-right-move" transform="matrix(1,0,0,1,0,0)"><g id="svga-group-eyes-right"><g id="svga-group-eyesback-right"><path id="SvgjsPath14363" d="M119.8 77.2c7.5 0 13.5 5.8 13.5 13s-6 13-13.5 13-13.5-5.8-13.5-13 6-13 13.5-13z" fill="#ffffff" stroke-width="none" opacity="1"></path></g><g id="svga-group-eyesiriswrapper-right" transform="matrix(1,0,0,1,0,0)"><g id="svga-group-eyesiriscontrol-right" transform="matrix(1,0,0,1,0,0)"><g id="svga-group-eyesiris-right"><path id="SvgjsPath12039" d="M119.8 85.3c2.7 0 4.9 2.2 4.9 4.9s-2.2 4.9-4.9 4.9-4.9-2.2-4.9-4.9 2.2-4.9 4.9-4.9z" fill="#7b5c33" stroke-width="none" opacity="1"></path><path id="SvgjsPath12040" d="M119.8 87.5c1.5 0 2.7 1.2 2.7 2.7s-1.2 2.7-2.7 2.7-2.7-1.2-2.7-2.7 1.2-2.7 2.7-2.7z" fill="#000000" stroke-width="none" opacity="1"></path><path id="SvgjsPath12041" d="M119.2 88.1c-.2-.2-.3-.4-.5-.5s-.4-.3-.7-.3c-.2 0-.5.1-.7.3-.2.2-.3.4-.3.7 0 .2.1.5.3.7.2.2.4.3.5.5s.4.3.7.3c.2 0 .5-.1.7-.3.3-.5.3-1.1 0-1.4zm2.4 4.5c.8 0 .8-1.3 0-1.3s-.8 1.3 0 1.3z" fill="#ffffff" stroke-width="none" opacity="1"></path></g></g></g><g id="svga-group-eyesfront-right"><path id="SvgjsPath14372" d="M119.8 76.7c-7.8 0-14.1 6.1-14.1 13.6s6.3 13.6 14.1 13.6 14.1-6.1 14.1-13.6-6.3-13.6-14.1-13.6zm0 19.4c-5.5 0-11.3-1.9-11.1-3.4 0 0 1.2-5.1 5.9-6.9 4.8-1.8 9.7-.7 12 1.6s4.2 4.8 4 5.6c-.2.8-5.4 3.1-10.8 3.1z" fill="#f3d4cf" stroke-width="none" opacity="1" stroke="none"></path><path id="SvgjsPath14375" d="M134.7 89.1c-1.1 1.2-2.9 2.1-4.6 2-.1-.1-.2-.2-.2-.3-.1-.1-.1-.2-.2-.3.7.1 1.6-.4 2.1-.8.7-.6 1.2-1.2 1.4-2.1 0-.3-.3-.4-.4-.2-.4.6-.9 1.3-1.5 1.7-.5.3-1.4.3-1.9.6v-.1l-.9-1.2c.4-.1.8-.2 1.1-.4.8-.4 1.4-1 1.6-1.8.1-.3-.3-.4-.5-.2-.4.6-.9 1.1-1.6 1.4-.4.2-.9.2-1.3.2-.1-.1-.1-.2-.2-.2l-.3-.3-.4-.3-.9-.8-.8-.5-.4-.2-.4-.2c-.3-.1-.6-.3-.9-.4-1.2-.4-2.5-.6-3.8-.7-2.6 0-5.2.6-7.3 2.2-2 1.6-3.2 3.8-3.6 6.2 0 .1-.1.2-.1.2 0 .3.1.6.3.8.2.2.4.4.7.5.5.3 1 .5 1.5.8 1 .4 2.1.8 3.2 1 2.2.5 4.4.8 6.6.7 1.8-.1 3.6-.4 5.4-1 .3.3.6.7.8 1.1.2.4.2.8.4 1.1.1.2.4.2.5-.1.3-.8-.3-1.8-.9-2.4.1 0 .3-.1.4-.1.4-.2.8-.3 1.2-.5.5.2.9.5 1.3.9.3.4.4.9.8 1.2.1.1.4.1.4-.1.3-.6-.1-1.3-.6-1.8-.4-.3-.8-.6-1.2-.7.4-.2.8-.4 1.2-.7l.3-.3c.1-.1.1-.2.1-.3v-.3c0-.2-.1-.3-.2-.5 1.8.3 4.2-.8 4.5-2.8-.3 0-.5-.2-.7 0zm-4.3 3.7c0 .1 0 .1 0 0-.1.2-.2.2-.3.3-.8.6-1.9 1-2.9 1.4-2.1.7-4.2 1.1-6.4 1.3-2.2.1-4.4-.1-6.5-.4-1.1-.2-2.2-.4-3.2-.8-.5-.2-1-.4-1.5-.7-.2-.1-.5-.3-.7-.5-.2-.2-.3-.4-.3-.7 0-.1 0-.1.1-.2 1-2.1 2.5-4 4.3-5.1.9-.6 2-1 3.1-1.2 1.1-.3 2.2-.4 3.4-.4 1.1 0 2.2.2 3.3.5.3.1.5.2.8.3l.4.1.4.2.8.4.7.5c.5.3.9.7 1.4 1.1l1.2 1.2 1.1 1.4c.2.4.5.8.7 1.1v.2h.1z" fill="#000000" stroke-width="none" opacity="1" stroke="none"></path></g></g></g><g id="svga-group-facehighlight-single"></g><g id="svga-group-eyebrows-left-move" transform="matrix(1,0,0,1,0,0)"><g id="svga-group-eyebrows-left-rotate" transform="matrix(1,1.7453292519943295e-9,-1.7453292519943295e-9,1,1.3416720889836142e-7,-1.3713983548768738e-7)"><g id="svga-group-eyebrows-left"><path id="SvgjsPath14730" d="M64.67 79.76c2.13-1.22 4.29-2.43 6.52-3.32.55-.23 1.11-.42 1.66-.55l.4-.08c.11 0 .2-.01.34 0 .13 0 .26.02.4.04.14.01.28.04.42.07 1.15.2 2.32.52 3.48.86 1.17.34 2.32.75 3.47 1.15 1.15.4 2.32.76 3.51 1.05 1.19.29 2.38.56 3.6.77 1.21.22 2.43.41 3.69.49l.07-.22c-1.07-.71-2.19-1.28-3.31-1.81-1.13-.54-2.28-1-3.44-1.43-1.16-.42-2.35-.77-3.56-1.04-1.21-.26-2.42-.5-3.64-.75-1.22-.24-2.44-.47-3.72-.59l-.49-.03c-.16-.01-.33-.01-.51 0-.17 0-.38.03-.57.07l-.49.15c-.63.22-1.21.49-1.76.79-1.11.6-2.16 1.27-3.19 1.97a50.2 50.2 0 0 0-3 2.2l.12.21z" fill="#2a232b" stroke-width="none" opacity="1"></path></g></g></g><g id="svga-group-eyebrows-right-move" transform="matrix(1,0,0,1,0,0)"><g id="svga-group-eyebrows-right-rotate" transform="matrix(1,1.7453292519943295e-9,-1.7453292519943295e-9,1,1.3597821180155734e-7,-2.1397181626525708e-7)"><g id="svga-group-eyebrows-right"><path id="SvgjsPath14731" d="M134.94 78.92c-2.06-.91-4.15-1.81-6.28-2.42-.53-.16-1.06-.28-1.57-.35l-.37-.04c-.1.01-.19.01-.31.03-.11.01-.24.04-.37.07-.12.02-.25.06-.38.09-1.04.27-2.1.64-3.14 1.03-1.05.39-2.08.84-3.11 1.29-1.03.45-2.08.85-3.15 1.2-1.07.35-2.15.68-3.25.96-1.1.29-2.21.55-3.36.72l-.08-.19c.93-.71 1.91-1.3 2.91-1.86 1-.56 2.02-1.06 3.05-1.53 1.04-.46 2.1-.86 3.19-1.19 1.09-.33 2.19-.63 3.29-.94 1.1-.31 2.21-.61 3.38-.81.15-.02.29-.05.45-.06.15-.02.31-.03.47-.04.15-.01.35 0 .53.01l.46.09c.6.15 1.15.34 1.69.56 1.07.44 2.09.95 3.1 1.49 1 .54 1.98 1.11 2.95 1.71l-.1.18z" fill="#2a232b" stroke-width="none" opacity="1"></path></g></g></g><g id="svga-group-nose-single-move" transform="matrix(1,0,0,1,0,0)"><g id="svga-group-nose-single"><path id="SvgjsPath12120" d="M109.52 109.12c-.37-.88-.94-1.63-1.59-2.29.5.77.95 1.58 1.22 2.42.13.42.21.86.14 1.25-.04.2-.1.36-.23.53-.12.17-.25.34-.41.47-.61.58-1.49.8-2.35.68-.43-.05-.87-.17-1.28-.35-.39-.14-.76-.35-1.13-.54.33-.49.63-1.01.89-1.55-.86.8-1.66 1.61-2.52 2.32-.43.35-.86.7-1.32.96-.45.27-.94.48-1.33.46-.1.01-.18-.02-.27-.03-.08-.05-.15-.05-.26-.14-.21-.13-.43-.31-.65-.48-.44-.34-.87-.72-1.31-1.08-.87-.74-1.75-1.48-2.69-2.17.44.7.95 1.34 1.47 1.97-.44.2-.89.36-1.34.46-.56.11-1.15.13-1.62-.09-.95-.47-1.51-1.61-1.35-2.58.04-.25.12-.44.26-.65.15-.23.32-.46.49-.69.35-.45.72-.9 1.11-1.33l.58-.65c.23-.25.4-.49.58-.74.36-.5.68-1.03.94-1.61.26-.57.42-1.23.52-1.81.1-.59.2-1.18.26-1.77.13-1.18.24-2.36.27-3.55.08-2.37.02-4.76-.45-7.08.05 2.36-.12 4.7-.35 7.03-.13 1.16-.26 2.33-.44 3.48-.09.58-.18 1.15-.28 1.72-.11.58-.23 1.07-.47 1.57-.22.5-.5.99-.82 1.45-.16.23-.33.47-.5.65-.2.23-.39.45-.58.68-.38.46-.74.94-1.09 1.43-.17.25-.35.5-.5.77-.18.29-.3.67-.32 1-.11 1.38.74 2.67 1.98 3.12.64.2 1.29.1 1.86-.1.47-.16.9-.4 1.31-.67.21.25.41.5.63.74.39.44.8.84 1.24 1.25.22.2.45.39.72.57.11.09.32.19.5.27.19.05.39.1.58.1.77 0 1.36-.33 1.88-.66.51-.36.96-.75 1.36-1.2.39-.42.74-.87 1.06-1.34.66.58 1.44 1.09 2.36 1.27.47.1.98.11 1.46 0 .48-.12.94-.36 1.31-.7.19-.17.34-.37.48-.57.15-.2.26-.48.28-.73.03-.54-.1-1.03-.29-1.47z" fill="#c5796d" stroke-width="none" opacity="1" stroke="none"></path></g></g><g id="svga-group-hair-front"><path id="SvgjsPath13512" d="M140.4 54.5C139.3 51.2 131 43 127 39.8c2.2-1.1 5.1-3 5.8-4.8 1.1-2.8-1.1-18.2-1.9-19.5-.8-1.3-15.5-10.4-24.1-11.6-8.5-1.1-30.7 3.6-31.2 4-.6.4-10 15-8.9 22 .8 5.2 5.7 7.9 8.2 8.9-2.7 1.8-5.2 3.5-6.7 4.8-3.3 3-8.3 10.4-8.3 10.4s-4.5 12.2-4.8 15.2c-.3 3.1-.9 14.1-.9 14.1l.7 1.5s1.6 5.1 1.8 6.2c.4 2 .7 5.7.7 5.7s2.6-17.1 4.1-22.1 6.9-13.7 11.6-17.5c4.8-3.8 19.7-9.6 27.1-9.9 7.4-.3 17.1 3.9 21.4 6.7 4.3 2.7 9.8 10.8 12.3 14.9 2.6 4.1 3.4 10.1 4.4 13.4s3.4 14.6 3.6 15.3 1.6-4.4 1.6-4.4.8-7 1-7.7c.2-.7 1.4-5.7 1.4-7s-4.3-20.3-5.5-23.9z" fill="#2a232b" stroke-width="none" opacity="1" stroke="none"></path><path id="SvgjsPath13513" d="M140.4 54.5c-.6-1.5-1.7-2.8-2.7-4.1-1.1-1.3-2.2-2.5-3.4-3.7-2.3-2.4-4.7-4.7-7.3-6.8l-.1-.1.1-.1c1.1-.6 2.2-1.3 3.2-2 1-.8 2-1.6 2.5-2.7.3-1.2.3-2.5.2-3.8-.1-1.3-.1-2.5-.3-3.8-.3-2.5-.6-5.1-1-7.6-.2-1.2-.4-2.5-.8-3.7 0-.2-.1-.3-.1-.4-.1-.1-.2-.2-.2-.3-.2-.2-.5-.4-.7-.6-.5-.4-1-.7-1.6-1.1-2.1-1.4-4.4-2.6-6.6-3.8-2.2-1.2-4.6-2.3-6.9-3.2-2.3-.9-4.8-1.8-7.2-2.2-2.5-.4-5-.2-7.5-.1-5.1.3-10.1 1.1-15.2 2-2.5.4-5 .9-7.5 1.5l-.9.2c-.3.1-.5.1-.6.3-.4.6-.8 1.1-1.1 1.6-.7 1.1-1.3 2.2-2 3.3-1.3 2.2-2.4 4.5-3.4 6.8s-1.9 4.7-2.2 7.2c0 .6-.2 1.2-.1 1.9 0 .6.1 1.2.3 1.8.3 1.2.9 2.3 1.7 3.3 1.6 2 3.7 3.4 6.1 4.4l.4.2-.3.2c-1.5 1-3 2-4.4 3-1.4 1-2.8 2.2-4 3.5-2.4 2.6-4.6 5.5-6.6 8.5-.8 2.4-1.7 4.7-2.5 7.1-.8 2.4-1.6 4.8-2.1 7.2-.1.3-.1.6-.2.9l-.1.9-.1 1.9-.2 3.8-.4 7.5v-.1l.7 1.5c.6 1.9 1.2 3.8 1.8 5.8.2 1 .3 2 .4 3l.4 3h-.6c.9-6.2 1.9-12.3 3.2-18.5.3-1.5.7-3.1 1.2-4.6.5-1.5 1.2-2.9 1.9-4.3 1.4-2.8 3.2-5.4 5.1-7.9 1-1.2 2-2.4 3.2-3.5 1.2-1.1 2.5-2 3.9-2.8 2.7-1.6 5.6-2.9 8.5-4 2.9-1.2 5.9-2.2 8.9-3 1.5-.4 3.1-.8 4.6-1 1.6-.3 3.2-.4 4.8-.3 1.6.1 3.2.3 4.7.7 1.6.3 3.1.8 4.6 1.3 3 1 5.9 2.3 8.7 3.8 1.4.7 2.8 1.7 3.9 2.8 1.2 1.1 2.2 2.2 3.2 3.5 2 2.4 3.8 5 5.6 7.6.8 1.3 1.7 2.6 2.4 4.1.7 1.4 1.2 2.9 1.6 4.5.4 1.5.8 3 1.1 4.6.2.8.4 1.5.6 2.2.2.7.4 1.5.6 2.3.8 3 1.4 6.1 2.1 9.1l.5 2.3.2 1.1.1.6.1.3v.1c0-.1-.2-.1-.2-.1-.1 0-.1.1-.1.1.1-.2.3-.6.4-1l.4-1.1c.2-.7.5-1.5.7-2.2l.6-4.9c.1-.8.2-1.6.4-2.4l.6-2.4c.4-1.6.8-3.2.9-4.8-.1-1.6-.6-3.2-.9-4.8-.7-3.2-1.4-6.4-2.2-9.6-1.1-3.6-1.9-6.7-2.8-9.9zm.1 0c1 3.1 1.7 6.3 2.5 9.5s1.6 6.4 2.3 9.6c.3 1.6.8 3.2.9 4.9-.1 1.7-.5 3.3-.9 4.9-.2.8-.4 1.6-.5 2.4l-.3 2.4-.5 4.8c-.2.8-.4 1.5-.6 2.3l-.4 1.1c-.1.4-.2.7-.5 1.2l-.1.1s-.1.1-.2.1-.2-.1-.3-.1c0 0 0-.1-.1-.1 0-.1 0-.1-.1-.2l-.1-.3-.1-.6-.3-1.1-.5-2.3c-.7-3-1.4-6.1-2.2-9.1-.2-.8-.4-1.5-.6-2.2-.2-.8-.4-1.5-.6-2.3l-1.2-4.5c-.4-1.5-1-2.9-1.6-4.3-.6-1.4-1.5-2.6-2.4-3.9-1.7-2.6-3.5-5.1-5.5-7.5-2-2.4-4.1-4.6-6.9-6-2.7-1.5-5.6-2.7-8.5-3.7-1.5-.5-2.9-.9-4.4-1.2-1.5-.3-3-.6-4.5-.7-1.5-.1-3 0-4.5.3-1.5.2-3 .6-4.5 1-3 .8-5.9 1.8-8.8 2.9-2.9 1.1-5.7 2.4-8.4 3.9s-4.9 3.6-6.8 6.1c-1.9 2.4-3.6 5-5.1 7.8-.7 1.4-1.4 2.8-1.9 4.2-.5 1.4-.9 2.9-1.2 4.5-1.3 6.1-2.3 12.2-3.3 18.4l-.3 2.2-.3-2.2-.4-3c-.1-1-.2-2-.4-3-.5-1.9-1.1-3.9-1.7-5.8l-.7-1.6v-.2l.5-7.5.3-3.8.1-1.9.1-.9c.1-.3.1-.6.2-.9.6-2.5 1.4-4.8 2.2-7.2.8-2.4 1.6-4.7 2.5-7.1 1-1.5 2.1-2.9 3.2-4.4 1.1-1.4 2.2-2.8 3.4-4.2 1.2-1.4 2.6-2.5 4.1-3.6 1.4-1.1 2.9-2.1 4.4-3.1v.4c-2.4-1-4.6-2.4-6.3-4.5-.8-1-1.5-2.2-1.8-3.4-.2-.6-.3-1.3-.3-1.9-.1-.7 0-1.3.1-2 .3-2.6 1.2-5 2.2-7.4 1-2.4 2.2-4.7 3.4-6.9.6-1.1 1.3-2.2 2-3.3.3-.5.7-1.1 1.1-1.6.1-.1.3-.4.5-.4l.3-.1.2-.1.9-.2c2.5-.6 5-1.1 7.5-1.5 5-.9 10.1-1.7 15.2-2.1 2.6-.2 5.2-.3 7.8.1 2.6.5 5 1.3 7.4 2.3 4.7 2 9.3 4.4 13.6 7.3.5.4 1.1.7 1.6 1.1.3.2.5.4.8.6l.4.4c.1.2.1.4.2.5.3 1.3.6 2.5.8 3.8.4 2.5.7 5.1.9 7.6.1 1.3.2 2.6.2 3.8 0 1.3.1 2.6-.3 3.9-.6 1.2-1.6 2.1-2.6 2.8-1.1.8-2.2 1.4-3.3 2v-.2c2.6 2.1 5 4.4 7.3 6.8 1.1 1.2 2.3 2.4 3.3 3.7.7 1.5 1.8 2.8 2.4 4.4z" fill="#1b141c" stroke-width="none" opacity="1" stroke="none"></path><path id="SvgjsPath13514" d="M55.3 70.9c-1 3.4-1.2 7.1-.7 10.7.5 3.6 1.6 7.1 3.5 10.1-1.2-3.4-2.1-6.7-2.5-10.2-.5-3.6-.5-7.1-.3-10.6zm3.9 7.9-.4-1.6-.3-1.6c-.4-2.1-.6-4.3-.7-6.5-.1-2.2 0-4.3.3-6.5s.7-4.3 1.3-6.4c-1 2-1.6 4.1-2 6.3-.4 2.2-.6 4.4-.5 6.6.1 2.2.4 4.4.9 6.6l.5 1.6.5 1.6.7 1.5c.2.5.5 1 .7 1.5-.2-.5-.3-1.1-.5-1.6l-.5-1.5zm2.5-26.7c-1.2 3.1-1.6 6.5-1.5 9.8.1 3.3.8 6.7 2.2 9.7-.6-3.2-1.1-6.5-1.2-9.7-.2-3.3.1-6.5.5-9.8zm6.4-1.4c.4-3.3 1.5-6.4 3.2-9.3-2.3 2.5-3.8 5.8-4.2 9.2-.4 3.4.1 7 1.7 10-.8-3.4-1.1-6.7-.7-9.9zm4-9.1c-1.3 2.1-2 4.5-2.2 6.9-.2 2.4.2 5 1.2 7.2-.2-2.4-.3-4.8-.2-7.1.2-2.3.6-4.6 1.2-7zm4.2 4.1c-.1 3 .6 6.1 2.3 8.5-1-2.8-1.4-5.6-1.3-8.5.1-2.8.8-5.6 1.9-8.3-1.8 2.3-2.8 5.3-2.9 8.3zm7.2-9.8c-1.1 2.1-1.7 4.6-1.7 7-.1 2.4.3 4.9 1.4 7.1-.3-2.4-.5-4.7-.4-7.1 0-2.3.3-4.6.7-7zm13.9-2.2c-.7 2-.9 4.2-.8 6.3.1 2.1.6 4.3 1.5 6.2-.1-2.1-.4-4.2-.5-6.2-.1-2.1-.1-4.2-.2-6.3zm23 3-3.1-1.2-3.2-1c-4.3-1.3-8.8-1.9-13.3-2.1-4.5-.1-9 .3-13.4 1.3l-3.4.8-3.2 1.1-3.1 1.3-3 1.5c1-.4 2.1-.8 3.1-1.3L81 36l3.2-.9 3.2-.7c4.4-.9 8.8-1.3 13.2-1.1 4.4.1 8.9.7 13.2 1.8s8.5 2.7 12.5 4.7c-1-.6-1.9-1.1-2.9-1.7l-3-1.4zm-42.7-.3c-1.1-2-1.9-4.1-2.7-6.3-.8-2.1-1.4-4.2-1.9-6.4 1.1-1.5 2.3-3 3.6-4.4 1.3-1.4 2.8-2.8 4.3-4 1.5-1.2 3.1-2.4 4.7-3.4 1.6-1.1 3.3-1.9 5.1-2.7 4.9 0 9.8.1 14.8.4 2.5.2 4.9.4 7.4.8 2.4.4 4.9.9 7.2 1.7 1.2.4 2.3.9 3.1 1.7.9.8 1.2 1.9 1.3 3.1l.4 7.4.2 3.7c.1 1.2.2 2.5-.1 3.6-.4 1.1-1.3 1.9-2.3 2.6-1.1.6-2.2 1-3.4 1.4v.1c1.2-.3 2.4-.6 3.6-1.1 1.1-.5 2.2-1.4 2.7-2.7.5-1.3.3-2.6.3-3.8l-.2-3.7c-.1-2.5-.2-4.9-.4-7.5-.1-.6-.2-1.3-.5-1.9-.3-.6-.7-1.2-1.2-1.6-1-.9-2.3-1.3-3.5-1.6-2.4-.7-4.9-1.1-7.3-1.5-2.5-.3-4.9-.6-7.4-.9-4.9-.5-9.9-.8-14.9-.9h-.2c-1.8.8-3.6 1.6-5.3 2.7-.9.5-1.7 1.1-2.5 1.6l-2.4 1.8c-1.5 1.3-3 2.6-4.3 4.1-1.3 1.5-2.6 3-3.7 4.7l-.1.1v.2c.6 2.2 1.3 4.4 2.2 6.5.9 2.1 1.9 4.2 3.1 6.1l.3.1zm24.4-13.8c.5.6.7 1.4.8 2.2.1.8 0 1.6.2 2.4.1.8.4 1.7 1.1 2.4.3.3.8.6 1.3.6.5.1.9 0 1.4-.1 1.6-.5 3.1-1.1 4.6-1.6l2.3-.9.6-.2c.2-.1.4-.2.6-.4.4-.3.7-.5 1-.8l.2-.2v-.2c0-.6-.1-1.1-.2-1.7-.2-.7-.4-1.1-.6-1.5l-1.3-2.9-.7-1.4c-.2-.5-.5-1-.8-1.4-.6-.9-1.3-1.7-2.1-2.4l-.1-.1h-.1c-1.6-.2-3.3-.3-4.9-.2-1.6.3-3.2.7-4.8 1.1-1.6.4-3.1.8-4.7 1.5-1.5.8-2.7 1.9-3.9 3.1l-.2.1v.1c-.3 1-.5 2-.7 3-.2 1-.3 2-.1 3.1.5 2 1.4 3.8 2.4 5.5h.1c-.7-1.8-1.5-3.7-1.8-5.6-.1-.9 0-1.9.2-2.8.2-.9.4-1.8.7-2.7 1.1-1 2.3-2.1 3.6-3 1.3-.8 2.9-1.3 4.4-1.8.8-.2 1.6-.5 2.3-.7.8-.2 1.6-.4 2.4-.5 1.6-.1 3.1.1 4.7.4l1.8 2.4c.3.4.5.9.7 1.3l.6 1.5 1.3 2.9c.2.5.5 1 .5 1.4.1.4.1.8.1 1.2-.2.2-.5.4-.7.6-.2.1-.3.2-.4.2l-.6.2-2.3.9-2.2.9c-.8.3-1.5.6-2.2.9-.7.2-1.4.2-1.9-.3-.5-.4-.8-1.2-1-1.9-.2-.8-.2-1.6-.3-2.4-.3-.8-.6-1.7-1.3-2.2zm2.1-1.6c-.8.3-1.5.8-2.1 1.4.8-.3 1.5-.7 2.3-1l1.8-.6c.1.5.2 1 .4 1.4.2.5.5 1 .8 1.4 0-.6-.2-1.1-.4-1.6s-.4-.9-.8-1.3c.1 0 .3-.1.4-.1-.7 0-1.6.2-2.4.4zm22.5 29.7c-.1 2.3-.3 4.7-.4 7 .9-2.2 1.3-4.6 1.4-7 .1-2.4-.1-4.8-.9-7.1 0 2.4 0 4.8-.1 7.1zm2 2.8c-.2 2.4-.4 4.7-.4 7.1.8-2.3 1.2-4.7 1.4-7.1.2-2.4.1-4.8-.3-7.2-.4 2.5-.5 4.9-.7 7.2zm6.1 8c.1 2.7-.1 5.4-.2 8.2.9-2.6 1.2-5.4 1.2-8.2-.1-2.8-.5-5.6-1.5-8.2.3 2.7.5 5.4.5 8.2zm2.1 8.2c-.2 1.6-.5 3.2-.5 4.8.8-1.5 1.2-3.1 1.5-4.7.2-1.6.3-3.3 0-4.9-.4 1.7-.7 3.2-1 4.8zm5.5.7c-.4 3.3-.6 6.5-.9 9.8-.3 3.2-.7 6.5-1 9.8 1.1-3.1 1.7-6.4 2-9.7.3-3.3.4-6.6-.1-9.9z" fill="#1b141c" stroke-width="none" opacity="1" stroke="none"></path></g><g id="svga-group-glasses-single-move" transform="matrix(1,0,0,1,0,0)"><g id="svga-group-glasses-single"></g></g></g></g></g><rect id="svga-credit-rect" width="200" height="15" x="0" y="185" fill="#ecf0f1" opacity="0.5" style="display: none;"></rect><text id="svga-credit-text" font-family="Avenir Next, Roboto, Helvetica, Arial, sans-serif" font-size="10px" text-anchor="start" font-weight="400" size="10px" anchor="start" weight="400" fill="#333333" x="33.40447998046875" y="182.60824704170227" style="display: none;"><tspan id="SvgjsTspan11941" dy="13" x="33.40447998046875">Created on AvatarMaker.com</tspan></text></g><defs id="SvgjsDefs11893"></defs></svg>